<svg width="405" height="443" viewBox="0 0 405 443" fill="none" xmlns="http://www.w3.org/2000/svg">
<path d="M169.817 11.053C169.8 10.547 169.773 10.042 169.735 9.53696C169.571 7.39596 169.332 4.94396 167.918 3.23196C166.707 1.76696 164.832 1.43496 163.052 1.23396C160.798 0.978959 158.534 0.824957 156.267 0.737957C151.677 0.562957 147.082 0.663957 142.491 0.765957C140.133 0.817957 137.772 0.870957 135.421 1.05796C132.533 1.28796 129.563 1.71096 128.218 4.59696C127.011 7.18696 127.16 10.476 127.145 13.263C127.131 15.762 127.123 18.262 127.223 20.758C127.353 23.998 127.545 28.22 131.043 29.641C132.91 30.4 135.165 30.569 137.16 30.699C139.274 30.837 141.394 30.82 143.511 30.851C147.951 30.917 152.391 30.765 156.829 30.677C159.912 30.616 163.077 30.581 166.027 29.574C168.574 28.705 169.238 25.945 169.582 23.551C169.924 21.172 169.837 18.759 169.833 16.363C169.831 14.595 169.878 12.823 169.817 11.053Z" fill="white"/>
<path d="M155.224 15.7079C151.495 13.5179 147.847 11.3749 144.165 9.21191C144.165 13.5769 144.165 17.8679 144.165 22.2059C147.86 20.0359 151.508 17.8919 155.224 15.7079Z" fill="#FF4D43"/>
<path d="M206.343 9.10498C207.59 9.10498 208.767 9.10498 209.994 9.10498C209.994 15.672 209.994 22.216 209.994 28.791C208.827 28.791 207.654 28.791 206.414 28.791C206.414 28.12 206.414 27.46 206.414 26.722C206.075 27.054 205.813 27.317 205.543 27.572C204.693 28.375 203.797 29.084 202.54 29.092C201.403 29.1 200.533 28.563 200.218 27.468C199.995 26.693 199.857 25.866 199.848 25.061C199.793 19.837 199.784 14.614 199.761 9.38998C199.761 9.31798 199.773 9.24498 199.783 9.13598C200.96 9.13598 202.134 9.13598 203.366 9.13598C203.373 9.29298 203.388 9.45998 203.389 9.62698C203.412 14.646 203.433 19.666 203.454 24.685C203.455 24.831 203.446 24.978 203.464 25.122C203.541 25.734 203.984 26.072 204.546 25.829C204.996 25.634 205.389 25.281 205.765 24.951C206.26 24.517 206.417 23.965 206.409 23.281C206.36 18.772 206.359 14.263 206.343 9.75497C206.342 9.55397 206.343 9.35298 206.343 9.10498Z" fill="white"/>
<path d="M187.324 2.49692C186.669 4.67392 186.036 6.77992 185.402 8.88592C184.506 11.8599 183.607 14.8319 182.717 17.8079C182.651 18.0269 182.623 18.2649 182.624 18.4939C182.638 21.7479 182.66 25.0009 182.68 28.2549C182.681 28.4139 182.68 28.5729 182.68 28.7739C181.412 28.7739 180.17 28.7739 178.873 28.7739C178.873 28.6079 178.874 28.4519 178.873 28.2949C178.857 25.0269 178.849 21.7589 178.814 18.4899C178.81 18.1069 178.694 17.7149 178.578 17.3439C177.074 12.5599 175.562 7.77892 174.051 2.99592C174.008 2.86092 173.97 2.72392 173.911 2.52192C175.207 2.52192 176.444 2.51292 177.68 2.53792C177.79 2.53992 177.953 2.75792 177.993 2.90192C178.582 5.02292 179.154 7.14992 179.73 9.27492C180.033 10.3929 180.338 11.5119 180.732 12.6359C180.924 11.8979 181.12 11.1609 181.308 10.4219C181.944 7.92091 182.584 5.41992 183.205 2.91492C183.281 2.60692 183.389 2.48392 183.722 2.48892C184.901 2.50892 186.08 2.49692 187.324 2.49692Z" fill="white"/>
<path d="M186.719 18.928C186.719 17.427 186.677 15.923 186.737 14.424C186.767 13.691 186.909 12.94 187.135 12.24C187.701 10.493 188.877 9.35199 190.735 9.07399C192.815 8.76199 194.67 9.174 195.959 11.01C196.613 11.941 196.87 13.029 196.958 14.142C197.034 15.1 197.043 16.064 197.05 17.026C197.065 19.126 197.086 21.226 197.05 23.325C197.037 24.062 196.937 24.814 196.751 25.527C196.187 27.689 194.266 29.125 192.003 29.151C189.727 29.177 187.686 27.745 187.113 25.581C186.855 24.607 186.783 23.572 186.73 22.559C186.667 21.352 186.715 20.139 186.715 18.929L186.719 18.928ZM193.486 19.121C193.469 19.121 193.452 19.121 193.435 19.121C193.435 17.589 193.447 16.058 193.427 14.527C193.422 14.124 193.369 13.708 193.254 13.322C193.049 12.633 192.508 12.28 191.801 12.293C191.105 12.306 190.586 12.696 190.409 13.398C190.317 13.762 190.262 14.146 190.263 14.521C190.269 17.54 190.286 20.559 190.319 23.578C190.324 24.009 190.386 24.454 190.506 24.867C190.706 25.555 191.249 25.914 191.951 25.909C192.608 25.905 193.136 25.524 193.323 24.834C193.432 24.432 193.473 24.001 193.478 23.583C193.497 22.096 193.486 20.609 193.486 19.121Z" fill="white"/>
<path d="M238.658 10.7689C239.4 10.2289 240.062 9.60892 240.838 9.20992C242.789 8.20692 244.751 9.10393 245.247 11.2349C245.509 12.3619 245.66 13.5369 245.682 14.6939C245.737 17.5959 245.718 20.5009 245.667 23.4039C245.648 24.4769 245.565 25.5709 245.322 26.6119C244.786 28.9119 242.606 29.8119 240.563 28.6079C239.872 28.2009 239.28 27.6239 238.627 27.1109C238.627 27.4379 238.632 27.8099 238.626 28.1819C238.613 28.9479 238.709 28.8679 237.955 28.8729C237.182 28.8779 236.409 28.8779 235.635 28.8749C235.056 28.8729 235.053 28.8699 235.054 28.3039C235.059 23.6789 235.064 19.0539 235.07 14.4289C235.075 10.6059 235.087 6.78393 235.076 2.96193C235.075 2.53193 235.208 2.41793 235.62 2.43093C236.495 2.45793 237.371 2.45392 238.246 2.42592C238.607 2.41492 238.686 2.54693 238.684 2.87893C238.667 5.30093 238.666 7.72292 238.66 10.1439C238.657 10.3729 238.658 10.6009 238.658 10.7689ZM238.657 18.9489C238.647 18.9489 238.637 18.9489 238.627 18.9489C238.627 20.7129 238.668 22.4789 238.607 24.2399C238.583 24.9399 238.886 25.2909 239.438 25.5509C239.609 25.6309 239.785 25.7059 239.966 25.7569C240.817 25.9989 241.454 25.6719 241.69 24.8239C241.807 24.4069 241.877 23.9639 241.88 23.5319C241.9 20.4269 241.905 17.3209 241.895 14.2159C241.894 13.8139 241.817 13.4009 241.706 13.0129C241.54 12.4349 241.175 12.1989 240.571 12.1739C239.984 12.1489 239.503 12.4029 239.035 12.7159C238.752 12.9049 238.648 13.1399 238.651 13.4819C238.665 15.3039 238.657 17.1269 238.657 18.9489Z" fill="white"/>
<path d="M228.407 26.8458C227.934 27.2908 227.535 27.6878 227.111 28.0568C226.428 28.6528 225.663 29.0948 224.731 29.1478C223.242 29.2338 222.228 28.3988 221.961 26.8188C221.847 26.1458 221.782 25.4568 221.78 24.7748C221.765 19.7558 221.776 14.7378 221.764 9.71883C221.763 9.31183 221.853 9.15283 222.29 9.16683C223.208 9.19683 224.128 9.19183 225.046 9.16283C225.455 9.14983 225.561 9.28483 225.56 9.68383C225.548 14.5418 225.553 19.3998 225.553 24.2578C225.553 24.5198 225.546 24.7838 225.562 25.0448C225.599 25.6698 225.951 25.9338 226.559 25.8078C227.376 25.6378 228.408 24.3858 228.408 23.5618C228.411 18.9518 228.413 14.3418 228.416 9.73183C228.416 9.16483 228.419 9.16283 228.988 9.16083C229.907 9.15783 230.827 9.16883 231.745 9.14983C232.072 9.14283 232.211 9.22183 232.21 9.58183C232.196 15.8698 232.191 22.1568 232.192 28.4448C232.192 28.7538 232.113 28.8898 231.775 28.8828C230.783 28.8638 229.791 28.8658 228.799 28.8818C228.487 28.8868 228.392 28.7708 228.402 28.4738C228.419 27.9568 228.407 27.4378 228.407 26.8458Z" fill="white"/>
<path d="M255.023 21.914C256.256 21.914 257.406 21.909 258.555 21.923C258.643 21.924 258.807 22.062 258.806 22.135C258.788 23.589 258.885 25.067 258.159 26.411C257.244 28.104 255.813 28.996 253.893 29.092C251.437 29.215 249.612 28.192 248.636 26.151C248.181 25.199 247.983 24.18 247.982 23.139C247.98 20.237 247.964 17.332 248.061 14.433C248.119 12.68 248.714 11.105 250.146 9.93305C252.583 7.94004 257.592 8.39504 258.582 12.923C258.749 13.687 258.818 14.481 258.842 15.264C258.882 16.517 258.848 17.772 258.843 19.027C258.84 19.607 258.838 19.608 258.277 19.609C256.308 19.613 254.339 19.6161 252.369 19.6191C252.195 19.6191 252.021 19.6191 251.851 19.6191C251.82 19.6771 251.782 19.713 251.783 19.75C251.792 21.207 251.794 22.664 251.826 24.121C251.832 24.39 251.926 24.668 252.031 24.92C252.3 25.564 252.805 25.853 253.531 25.818C254.184 25.786 254.694 25.453 254.853 24.804C254.983 24.274 254.985 23.711 255.018 23.161C255.042 22.77 255.023 22.377 255.023 21.914ZM255.093 16.604C255.042 15.451 255.045 14.348 254.927 13.2571C254.84 12.4571 254.349 12.152 253.462 12.151C252.513 12.15 252.014 12.456 251.923 13.279C251.812 14.287 251.821 15.309 251.8 16.326C251.798 16.417 251.953 16.59 252.038 16.592C253.023 16.61 254.009 16.604 255.093 16.604Z" fill="white"/>
<path d="M214.13 6.31291C213.2 6.31291 212.3 6.32091 211.4 6.30991C210.97 6.30491 210.4 6.41591 210.153 6.18991C209.934 5.98991 210.066 5.39691 210.06 4.97591C210.051 4.30491 210.077 3.63291 210.048 2.96291C210.033 2.60091 210.172 2.52291 210.502 2.52191C213.493 2.52091 216.484 2.50591 219.475 2.49491C220.321 2.49191 221.168 2.50591 222.013 2.47891C222.358 2.46791 222.432 2.59891 222.428 2.90891C222.414 3.88591 222.41 4.86391 222.43 5.84091C222.437 6.18491 222.323 6.29791 221.981 6.29291C220.945 6.27891 219.909 6.29191 218.873 6.29491C218.643 6.29591 218.413 6.29491 218.13 6.29491C218.13 6.61891 218.13 6.89291 218.13 7.16591C218.135 14.1839 218.141 21.2009 218.146 28.2189C218.147 28.8789 218.145 28.8809 217.488 28.8819C216.583 28.8829 215.679 28.8819 214.774 28.8809C214.191 28.8799 214.184 28.8789 214.183 28.2729C214.176 24.3479 214.171 20.4239 214.166 16.4989C214.161 13.2749 214.158 10.0499 214.152 6.82591C214.152 6.66991 214.139 6.51391 214.13 6.31291Z" fill="white"/>
<path d="M70.4618 280.291C76.388 266.124 69.7078 249.835 55.5411 243.909C41.3745 237.983 25.086 244.663 19.1598 258.83C13.2336 272.997 19.9138 289.285 34.0805 295.211C48.2472 301.137 64.5356 294.457 70.4618 280.291Z" fill="white"/>
<path d="M63.5901 265.436C63.5751 264.991 63.5521 264.546 63.5181 264.102C63.3741 262.218 63.1641 260.06 61.9191 258.553C60.8541 257.263 59.2031 256.972 57.6371 256.794C55.6531 256.57 53.6601 256.434 51.6651 256.358C47.6251 256.204 43.5811 256.293 39.5411 256.383C37.4651 256.429 35.3881 256.475 33.3181 256.64C30.7761 256.842 28.1621 257.215 26.9781 259.755C25.9151 262.035 26.0471 264.929 26.0341 267.382C26.0221 269.581 26.0151 271.782 26.1031 273.979C26.2171 276.831 26.3871 280.546 29.4651 281.797C31.1091 282.465 33.0931 282.614 34.8481 282.728C36.7091 282.849 38.5741 282.835 40.4371 282.862C44.3451 282.92 48.2521 282.786 52.1591 282.708C54.8721 282.654 57.6581 282.624 60.2541 281.738C62.4951 280.973 63.0801 278.544 63.3831 276.437C63.6841 274.343 63.6071 272.219 63.6041 270.111C63.6031 268.553 63.6441 266.993 63.5901 265.436ZM41.0131 275.252C41.0131 271.434 41.0131 267.657 41.0131 263.815C44.2541 265.719 47.4641 267.604 50.7461 269.532C47.4771 271.454 44.2651 273.341 41.0131 275.252Z" fill="#FF4D43"/>
<path d="M340.215 113.529H300.166C297.709 113.529 295.716 115.521 295.716 117.979V144.043C295.716 146.501 297.708 148.493 300.166 148.493H314.323L320.191 156.114L326.059 148.493H340.216C342.674 148.493 344.666 146.501 344.666 144.043V117.979C344.665 115.521 342.673 113.529 340.215 113.529Z" fill="white"/>
<path d="M336.321 120.124H303.106V121.236H336.321V120.124Z" fill="#454258"/>
<path d="M336.321 123.143H303.106V124.256H336.321V123.143Z" fill="#454258"/>
<path d="M336.321 126.163H303.106V127.275H336.321V126.163Z" fill="#454258"/>
<path d="M309.701 129.183H303.106V130.296H309.701V129.183Z" fill="#454258"/>
<path d="M336.322 129.183H312.006V130.296H336.322V129.183Z" fill="#454258"/>
<path d="M336.321 132.202H303.106V133.315H336.321V132.202Z" fill="#454258"/>
<path d="M323.766 135.222H303.106V136.334H323.766V135.222Z" fill="#454258"/>
<path d="M336.322 135.222H326.23V136.334H336.322V135.222Z" fill="#454258"/>
<path d="M336.321 138.241H303.106V139.354H336.321V138.241Z" fill="#454258"/>
<path d="M320.906 141.261H303.106V142.373H320.906V141.261Z" fill="#454258"/>
<path d="M353.67 302.519C341.321 302.519 331.276 292.473 331.276 280.126C331.276 267.778 341.322 257.732 353.67 257.732C366.017 257.732 376.064 267.778 376.064 280.126C376.063 292.473 366.017 302.519 353.67 302.519ZM353.67 260.175C342.669 260.175 333.719 269.125 333.719 280.126C333.719 291.126 342.669 300.076 353.67 300.076C364.67 300.076 373.621 291.126 373.621 280.126C373.62 269.125 364.67 260.175 353.67 260.175Z" fill="white"/>
<path d="M364.959 281.347H353.67C352.995 281.347 352.448 280.8 352.448 280.126V263.024C352.448 262.35 352.995 261.802 353.67 261.802C354.344 261.802 354.891 262.349 354.891 263.024V278.904H364.959C365.633 278.904 366.18 279.451 366.18 280.126C366.18 280.8 365.633 281.347 364.959 281.347Z" fill="#454258"/>
<path d="M24.1211 331.453C23.8831 331.453 23.6611 331.361 23.4931 331.193C23.3251 331.025 23.2331 330.801 23.2331 330.565V325.435H18.1031C17.8661 325.435 17.6431 325.342 17.4751 325.175C17.3071 325.007 17.2151 324.784 17.2151 324.547C17.2151 324.057 17.6131 323.659 18.1031 323.659L23.2341 323.66V318.529C23.2341 318.039 23.6321 317.641 24.1221 317.641C24.6111 317.641 25.0091 318.039 25.0091 318.529V323.66H30.1411C30.6301 323.66 31.0281 324.058 31.0291 324.547C31.0291 325.037 30.6311 325.435 30.1421 325.435H25.0101V330.565C25.0091 331.055 24.6111 331.453 24.1211 331.453Z" fill="white"/>
<path d="M389.102 215.475C388.865 215.475 388.641 215.383 388.474 215.215C388.306 215.047 388.214 214.823 388.214 214.587V209.457H383.084C382.847 209.457 382.624 209.364 382.456 209.197C382.288 209.029 382.196 208.806 382.196 208.569C382.196 208.079 382.594 207.681 383.084 207.681L388.214 207.682V202.551C388.214 202.06 388.612 201.663 389.102 201.663C389.591 201.663 389.989 202.061 389.989 202.55V207.682H395.121C395.61 207.682 396.008 208.08 396.009 208.569C396.009 209.059 395.611 209.457 395.122 209.457H389.991V214.587C389.991 215.077 389.592 215.475 389.102 215.475Z" fill="white"/>
<path d="M58.8511 103.829C58.6141 103.829 58.3901 103.737 58.2231 103.569C58.0561 103.401 57.9641 103.177 57.9641 102.941V97.8111H52.8331C52.5961 97.8111 52.3731 97.7181 52.2051 97.5511C52.0371 97.3841 51.9451 97.1601 51.9451 96.9231C51.9451 96.4331 52.3431 96.0351 52.8331 96.0351L57.9641 96.0361V90.9051C57.9641 90.4151 58.3621 90.0171 58.8521 90.0171C59.3411 90.0171 59.7391 90.4151 59.7391 90.9041V96.0361H64.8711C65.3591 96.0361 65.7571 96.4341 65.7591 96.9231C65.7591 97.4131 65.3611 97.8111 64.8721 97.8111H59.7401V102.941C59.7391 103.431 59.3411 103.829 58.8511 103.829Z" fill="white"/>
<path d="M0.988037 234.042C0.988037 231.827 2.78304 230.03 5.00004 230.03C7.21504 230.03 9.01104 231.827 9.01104 234.042C9.01104 236.258 7.21604 238.054 5.00004 238.054C2.78404 238.054 0.988037 236.257 0.988037 234.042Z" fill="white"/>
<path d="M48.2939 222.449C48.2939 220.76 49.6639 219.39 51.3539 219.39C53.0429 219.39 54.4119 220.76 54.4119 222.449C54.4119 224.138 53.0429 225.508 51.3539 225.508C49.6639 225.509 48.2939 224.139 48.2939 222.449Z" stroke="#454258" stroke-width="1.9162" stroke-miterlimit="10"/>
<path d="M350.611 237.837C350.611 236.149 351.98 234.778 353.67 234.778C355.359 234.778 356.728 236.149 356.728 237.837C356.728 239.526 355.359 240.897 353.67 240.897C351.98 240.897 350.611 239.526 350.611 237.837Z" stroke="#454258" stroke-width="1.9162" stroke-miterlimit="10"/>
<path d="M174.692 344.775C174.692 343.086 176.062 341.715 177.752 341.715C179.441 341.715 180.81 343.086 180.81 344.775C180.81 346.464 179.44 347.835 177.752 347.835C176.062 347.835 174.692 346.464 174.692 344.775Z" stroke="#454258" stroke-width="1.9162" stroke-miterlimit="10"/>
<path d="M284.079 90.0161C284.079 88.3271 285.449 86.9561 287.139 86.9561C288.828 86.9561 290.197 88.3271 290.197 90.0161C290.197 91.7051 288.827 93.0761 287.139 93.0761C285.449 93.0761 284.079 91.7051 284.079 90.0161Z" stroke="#454258" stroke-width="1.9162" stroke-miterlimit="10"/>
<path d="M273.469 143.541C273.469 141.326 275.264 139.529 277.481 139.529C279.696 139.529 281.492 141.326 281.492 143.541C281.492 145.756 279.697 147.553 277.481 147.553C275.264 147.553 273.469 145.757 273.469 143.541Z" fill="white"/>
<path d="M332.31 314.059C332.31 311.844 334.105 310.047 336.322 310.047C338.537 310.047 340.333 311.844 340.333 314.059C340.333 316.275 338.538 318.072 336.322 318.072C334.105 318.072 332.31 316.275 332.31 314.059Z" fill="white"/>
<path d="M393.517 162.577C399.771 156.322 399.771 146.181 393.517 139.927C387.262 133.672 377.121 133.672 370.867 139.927C364.612 146.181 364.612 156.322 370.867 162.577C377.121 168.831 387.262 168.831 393.517 162.577Z" fill="white"/>
<path d="M377.951 142.751V159.749L390.777 151.25L377.951 142.751Z" fill="#FF4D43"/>
<path d="M113.816 130.968H24.1211V200.156H113.816V130.968Z" fill="white"/>
<path d="M53.7172 179.32H33.4812V193.074H53.7172V179.32Z" fill="#2D4F76"/>
<path d="M79.0861 179.32H58.8511V193.074H79.0861V179.32Z" fill="#2D4F76"/>
<path d="M96.1022 137.953H41.8372V174.838H96.1022V137.953Z" fill="#DBE2E8"/>
<path d="M104.457 179.32H84.2212V193.074H104.457V179.32Z" fill="#2D4F76"/>
<path d="M37.13 162.487C36.923 162.487 36.716 162.402 36.567 162.234L31.834 156.895C31.581 156.611 31.581 156.182 31.834 155.898L36.567 150.559C36.843 150.246 37.318 150.219 37.629 150.495C37.941 150.77 37.969 151.246 37.693 151.556L33.402 156.396L37.693 161.236C37.968 161.547 37.94 162.022 37.629 162.298C37.486 162.424 37.308 162.487 37.13 162.487Z" fill="#2D4F76"/>
<path d="M100.808 162.487C101.015 162.487 101.222 162.402 101.37 162.234L106.104 156.895C106.357 156.611 106.357 156.182 106.104 155.898L101.37 150.559C101.095 150.246 100.619 150.219 100.309 150.495C99.998 150.77 99.97 151.246 100.245 151.556L104.536 156.396L100.245 161.236C99.97 161.547 99.998 162.022 100.309 162.298C100.452 162.424 100.63 162.487 100.808 162.487Z" fill="#2D4F76"/>
<path d="M82.9472 164.144C87.2263 164.144 90.6952 160.675 90.6952 156.396C90.6952 152.117 87.2263 148.648 82.9472 148.648C78.6681 148.648 75.1992 152.117 75.1992 156.396C75.1992 160.675 78.6681 164.144 82.9472 164.144Z" fill="#FFD264"/>
<path d="M84.2211 161.52C84.2211 163.13 82.9161 164.435 81.3061 164.435H64.0051C62.3961 164.435 61.0901 163.13 61.0901 161.52C61.0901 159.911 62.3951 158.605 64.0051 158.605H81.3061C82.9161 158.605 84.2211 159.91 84.2211 161.52Z" fill="white"/>
<path d="M71.476 155.158C71.476 155.868 70.901 156.443 70.191 156.443H55.46C54.75 156.443 54.175 155.868 54.175 155.158C54.175 154.448 54.75 153.873 55.46 153.873H70.191C70.901 153.873 71.476 154.449 71.476 155.158Z" fill="white"/>
<path d="M72.6562 147.096C72.6562 147.953 71.9612 148.647 71.1042 148.647H61.2312C60.3752 148.647 59.6802 147.953 59.6802 147.096C59.6802 146.24 60.3752 145.545 61.2312 145.545H71.1042C71.9612 145.544 72.6562 146.24 72.6562 147.096Z" fill="white"/>
<path fill-rule="evenodd" clip-rule="evenodd" d="M46.823 405.254L116.087 420.475L128.045 366.055L178.637 296.549L75.681 273.926L46.823 405.254Z" fill="#F3D5B6"/>
<path fill-rule="evenodd" clip-rule="evenodd" d="M81.708 297.79C92.039 313.885 107.404 338.409 90.528 357.251C83.013 351.447 73.252 320.563 81.708 297.79Z" fill="#D2B79A"/>
<path fill-rule="evenodd" clip-rule="evenodd" d="M117.966 87.3401H217.928C237.285 87.3401 253.123 98.6671 253.123 112.512V302.317C253.123 316.161 237.286 327.49 217.928 327.49H117.966C98.608 327.49 82.77 316.161 82.77 302.317V112.512C82.771 98.6671 98.608 87.3401 117.966 87.3401Z" fill="#2D4F76"/>
<path fill-rule="evenodd" clip-rule="evenodd" d="M93.701 107.478H242.193C242.48 107.478 242.719 107.637 242.719 107.832V304.985C242.719 305.18 242.481 305.339 242.193 305.339H93.701C93.413 305.339 93.175 305.18 93.175 304.985V107.831C93.176 107.637 93.413 107.478 93.701 107.478Z" fill="white"/>
<path fill-rule="evenodd" clip-rule="evenodd" d="M149.477 93.281H186.417C187.419 93.281 188.238 94.1 188.238 95.101V95.102C188.238 96.103 187.419 96.922 186.417 96.922H149.477C148.474 96.922 147.655 96.103 147.655 95.102V95.101C147.656 94.1 148.475 93.281 149.477 93.281Z" fill="#6E94C8"/>
<path fill-rule="evenodd" clip-rule="evenodd" d="M167.947 309.919C171.345 309.919 174.101 312.673 174.101 316.071C174.101 319.472 171.345 322.225 167.947 322.225C164.545 322.225 161.793 319.471 161.793 316.071C161.793 312.672 164.546 309.919 167.947 309.919Z" fill="#6E94C8"/>
<path d="M156.803 152.975H104.957V192.07H156.803V152.975Z" fill="#DBE2E8"/>
<path d="M207.128 162.783H165.305C164.147 162.783 163.209 161.845 163.209 160.687C163.209 159.529 164.147 158.591 165.305 158.591H207.128C208.286 158.591 209.224 159.53 209.224 160.687C209.224 161.845 208.286 162.783 207.128 162.783Z" fill="#DBE2E8"/>
<path d="M207.128 172.134H165.305C164.147 172.134 163.209 171.195 163.209 170.038C163.209 168.88 164.147 167.942 165.305 167.942H207.128C208.286 167.942 209.224 168.881 209.224 170.038C209.224 171.195 208.286 172.134 207.128 172.134Z" fill="#DBE2E8"/>
<path d="M181.805 181.484H165.304C164.146 181.484 163.208 180.545 163.208 179.388C163.208 178.23 164.146 177.292 165.304 177.292H181.805C182.963 177.292 183.901 178.231 183.901 179.388C183.901 180.545 182.963 181.484 181.805 181.484Z" fill="#DBE2E8"/>
<path d="M207.128 216.341H165.305C164.147 216.341 163.209 215.402 163.209 214.245C163.209 213.087 164.147 212.149 165.305 212.149H207.128C208.286 212.149 209.224 213.088 209.224 214.245C209.224 215.402 208.286 216.341 207.128 216.341Z" fill="#DBE2E8"/>
<path d="M207.128 225.691H165.305C164.147 225.691 163.209 224.752 163.209 223.595C163.209 222.437 164.147 221.499 165.305 221.499H207.128C208.286 221.499 209.224 222.438 209.224 223.595C209.224 224.753 208.286 225.691 207.128 225.691Z" fill="#DBE2E8"/>
<path d="M181.805 235.042H165.304C164.146 235.042 163.208 234.103 163.208 232.946C163.208 231.788 164.146 230.85 165.304 230.85H181.805C182.963 230.85 183.901 231.789 183.901 232.946C183.901 234.103 182.963 235.042 181.805 235.042Z" fill="#DBE2E8"/>
<path d="M207.128 267.414H165.305C164.147 267.414 163.209 266.475 163.209 265.318C163.209 264.16 164.147 263.222 165.305 263.222H207.128C208.286 263.222 209.224 264.161 209.224 265.318C209.224 266.476 208.286 267.414 207.128 267.414Z" fill="#DBE2E8"/>
<path d="M207.128 276.764H165.305C164.147 276.764 163.209 275.825 163.209 274.668C163.209 273.51 164.147 272.572 165.305 272.572H207.128C208.286 272.572 209.224 273.511 209.224 274.668C209.224 275.826 208.286 276.764 207.128 276.764Z" fill="#DBE2E8"/>
<path d="M181.805 286.115H165.304C164.146 286.115 163.208 285.176 163.208 284.019C163.208 282.861 164.146 281.923 165.304 281.923H181.805C182.963 281.923 183.901 282.862 183.901 284.019C183.901 285.176 182.963 286.115 181.805 286.115Z" fill="#DBE2E8"/>
<path d="M156.803 204.048H104.957V243.143H156.803V204.048Z" fill="#DBE2E8"/>
<path d="M156.803 255.121H104.957V294.216H156.803V255.121Z" fill="#DBE2E8"/>
<path d="M139.813 181.07C144.748 176.135 144.748 168.133 139.813 163.198C134.878 158.263 126.877 158.263 121.942 163.198C117.007 168.133 117.007 176.135 121.942 181.07C126.877 186.005 134.878 186.005 139.813 181.07Z" fill="#FF4D43"/>
<path d="M127.531 165.428V178.839L137.65 172.134L127.531 165.428Z" fill="white"/>
<path d="M139.812 232.53C144.747 227.595 144.747 219.594 139.812 214.659C134.877 209.724 126.876 209.724 121.941 214.659C117.006 219.594 117.006 227.595 121.941 232.53C126.876 237.465 134.877 237.465 139.812 232.53Z" fill="#FF4D43"/>
<path d="M127.531 216.889V230.301L137.65 223.595L127.531 216.889Z" fill="white"/>
<path d="M130.88 288.324C137.859 288.324 143.517 282.666 143.517 275.687C143.517 268.708 137.859 263.05 130.88 263.05C123.901 263.05 118.243 268.708 118.243 275.687C118.243 282.666 123.901 288.324 130.88 288.324Z" fill="#FF4D43"/>
<path d="M127.531 268.981V282.393L137.65 275.687L127.531 268.981Z" fill="white"/>
<path d="M220.009 163.78H218.975C218.783 163.78 218.626 163.937 218.626 164.128V166.995C218.626 167.187 218.783 167.344 218.975 167.344H220.009C220.201 167.344 220.358 167.187 220.358 166.995V164.128C220.358 163.937 220.201 163.78 220.009 163.78Z" fill="#DBE2E8"/>
<path d="M224.681 164.118H224.619C224.922 164.118 225.17 163.87 225.17 163.567C225.17 163.264 224.922 163.016 224.619 163.016H222.852C223.07 162.673 223.366 162.125 223.366 161.678C223.366 160.97 222.978 160.576 222.725 160.531C222.472 160.486 222.287 160.621 222.213 160.834C222.14 161.048 222.269 161.452 222.219 161.597C222.142 161.82 221.752 162.118 221.224 162.796C220.752 163.402 220.819 164.117 220.819 164.117V165.095V166.073V166.528C220.819 166.717 220.973 166.871 221.162 166.871H224.445C224.665 166.871 224.844 166.692 224.844 166.472C224.844 166.253 224.664 166.073 224.445 166.073H224.501C224.77 166.073 224.99 165.853 224.99 165.584C224.99 165.315 224.77 165.095 224.501 165.095H224.681C224.95 165.095 225.17 164.875 225.17 164.606C225.17 164.338 224.95 164.118 224.681 164.118Z" fill="#DBE2E8"/>
<path d="M233.962 166.074H234.996C235.188 166.074 235.344 165.917 235.344 165.726V162.859C235.344 162.667 235.187 162.51 234.996 162.51H233.962C233.77 162.51 233.614 162.667 233.614 162.859V165.726C233.613 165.917 233.77 166.074 233.962 166.074Z" fill="#DBE2E8"/>
<path d="M229.29 165.737H229.352C229.049 165.737 228.801 165.985 228.801 166.288C228.801 166.591 229.049 166.839 229.352 166.839H231.119C230.901 167.182 230.605 167.73 230.605 168.177C230.605 168.885 230.993 169.279 231.246 169.324C231.499 169.369 231.685 169.234 231.758 169.02C231.831 168.806 231.702 168.401 231.752 168.257C231.829 168.034 232.219 167.736 232.747 167.058C233.219 166.452 233.152 165.737 233.152 165.737V164.759V163.781V163.326C233.152 163.137 232.998 162.983 232.809 162.983H229.526C229.307 162.983 229.127 163.163 229.127 163.382C229.127 163.601 229.307 163.781 229.526 163.781H229.47C229.201 163.781 228.981 164.001 228.981 164.27C228.981 164.539 229.201 164.759 229.47 164.759H229.29C229.021 164.759 228.801 164.979 228.801 165.248C228.801 165.517 229.021 165.737 229.29 165.737Z" fill="#DBE2E8"/>
<path d="M220.009 216.78H218.975C218.783 216.78 218.626 216.937 218.626 217.128V219.995C218.626 220.187 218.783 220.344 218.975 220.344H220.009C220.201 220.344 220.358 220.187 220.358 219.995V217.128C220.358 216.937 220.201 216.78 220.009 216.78Z" fill="#DBE2E8"/>
<path d="M224.681 217.118H224.619C224.922 217.118 225.17 216.87 225.17 216.567C225.17 216.264 224.922 216.016 224.619 216.016H222.852C223.07 215.673 223.366 215.125 223.366 214.678C223.366 213.97 222.978 213.576 222.725 213.531C222.472 213.486 222.287 213.621 222.213 213.834C222.14 214.048 222.269 214.452 222.219 214.597C222.142 214.82 221.752 215.118 221.224 215.796C220.752 216.402 220.819 217.117 220.819 217.117V218.095V219.073V219.528C220.819 219.717 220.973 219.871 221.162 219.871H224.445C224.665 219.871 224.844 219.691 224.844 219.472C224.844 219.253 224.664 219.073 224.445 219.073H224.501C224.77 219.073 224.99 218.853 224.99 218.584C224.99 218.315 224.77 218.095 224.501 218.095H224.681C224.95 218.095 225.17 217.875 225.17 217.606C225.17 217.338 224.95 217.118 224.681 217.118Z" fill="#DBE2E8"/>
<path d="M233.962 219.074H234.996C235.188 219.074 235.344 218.917 235.344 218.725V215.858C235.344 215.666 235.187 215.509 234.996 215.509H233.962C233.77 215.509 233.614 215.666 233.614 215.858V218.725C233.613 218.917 233.77 219.074 233.962 219.074Z" fill="#DBE2E8"/>
<path d="M229.29 218.737H229.352C229.049 218.737 228.801 218.985 228.801 219.288C228.801 219.591 229.049 219.839 229.352 219.839H231.119C230.901 220.182 230.605 220.73 230.605 221.177C230.605 221.885 230.993 222.279 231.246 222.324C231.499 222.369 231.685 222.234 231.758 222.02C231.831 221.806 231.702 221.402 231.752 221.257C231.829 221.034 232.219 220.736 232.747 220.058C233.219 219.452 233.152 218.737 233.152 218.737V217.759V216.781V216.326C233.152 216.137 232.998 215.983 232.809 215.983H229.526C229.307 215.983 229.127 216.163 229.127 216.382C229.127 216.601 229.307 216.781 229.526 216.781H229.47C229.201 216.781 228.981 217.001 228.981 217.27C228.981 217.539 229.201 217.759 229.47 217.759H229.29C229.021 217.759 228.801 217.979 228.801 218.248C228.801 218.517 229.021 218.737 229.29 218.737Z" fill="#DBE2E8"/>
<path d="M220.009 267.835H218.975C218.783 267.835 218.626 267.992 218.626 268.183V271.05C218.626 271.242 218.783 271.399 218.975 271.399H220.009C220.201 271.399 220.358 271.242 220.358 271.05V268.183C220.358 267.991 220.201 267.835 220.009 267.835Z" fill="#DBE2E8"/>
<path d="M224.681 268.172H224.619C224.922 268.172 225.17 267.924 225.17 267.621C225.17 267.318 224.922 267.07 224.619 267.07H222.852C223.07 266.727 223.366 266.179 223.366 265.732C223.366 265.024 222.978 264.63 222.725 264.585C222.472 264.54 222.287 264.675 222.213 264.888C222.14 265.102 222.269 265.506 222.219 265.651C222.142 265.874 221.752 266.172 221.224 266.85C220.752 267.456 220.819 268.171 220.819 268.171V269.149V270.127V270.582C220.819 270.771 220.973 270.925 221.162 270.925H224.445C224.665 270.925 224.844 270.745 224.844 270.526C224.844 270.307 224.664 270.127 224.445 270.127H224.501C224.77 270.127 224.99 269.907 224.99 269.638C224.99 269.369 224.77 269.149 224.501 269.149H224.681C224.95 269.149 225.17 268.929 225.17 268.66C225.17 268.392 224.95 268.172 224.681 268.172Z" fill="#DBE2E8"/>
<path d="M233.962 270.128H234.996C235.188 270.128 235.344 269.971 235.344 269.779V266.912C235.344 266.72 235.187 266.563 234.996 266.563H233.962C233.77 266.563 233.614 266.72 233.614 266.912V269.779C233.613 269.971 233.77 270.128 233.962 270.128Z" fill="#DBE2E8"/>
<path d="M229.29 269.791H229.352C229.049 269.791 228.801 270.039 228.801 270.342C228.801 270.645 229.049 270.893 229.352 270.893H231.119C230.901 271.236 230.605 271.784 230.605 272.231C230.605 272.939 230.993 273.333 231.246 273.378C231.499 273.423 231.685 273.288 231.758 273.074C231.831 272.86 231.702 272.456 231.752 272.311C231.829 272.088 232.219 271.79 232.747 271.112C233.219 270.506 233.152 269.791 233.152 269.791V268.813V267.835V267.38C233.152 267.191 232.998 267.037 232.809 267.037H229.526C229.307 267.037 229.127 267.216 229.127 267.436C229.127 267.655 229.307 267.835 229.526 267.835H229.47C229.201 267.835 228.981 268.055 228.981 268.324C228.981 268.593 229.201 268.813 229.47 268.813H229.29C229.021 268.813 228.801 269.033 228.801 269.302C228.801 269.571 229.021 269.791 229.29 269.791Z" fill="#DBE2E8"/>
<path d="M242.768 107.478H93.125V123.044H242.768V107.478Z" fill="#FF4D43"/>
<path d="M242.768 123.043H93.125V143.541H242.768V123.043Z" fill="#DBE2E8"/>
<path d="M111.118 112.106C111.118 112.542 110.765 112.895 110.329 112.895H101.338C100.902 112.895 100.549 112.542 100.549 112.106C100.549 111.67 100.902 111.317 101.338 111.317H110.329C110.765 111.316 111.118 111.67 111.118 112.106Z" fill="white"/>
<path d="M111.118 115.26C111.118 115.696 110.765 116.049 110.329 116.049H101.338C100.902 116.049 100.549 115.696 100.549 115.26C100.549 114.824 100.902 114.471 101.338 114.471H110.329C110.765 114.472 111.118 114.825 111.118 115.26Z" fill="white"/>
<path d="M111.118 118.415C111.118 118.851 110.765 119.204 110.329 119.204H101.338C100.902 119.204 100.549 118.851 100.549 118.415C100.549 117.979 100.902 117.626 101.338 117.626H110.329C110.765 117.627 111.118 117.98 111.118 118.415Z" fill="white"/>
<path d="M233.923 114.099L233.662 113.479C233.662 113.479 234.27 112.109 234.215 112.056L233.411 111.271C233.355 111.217 231.984 111.842 231.984 111.842L231.352 111.587C231.352 111.587 230.793 110.198 230.717 110.198H229.582C229.503 110.198 228.986 111.59 228.986 111.59L228.355 111.846C228.355 111.846 226.955 111.251 226.901 111.304L226.098 112.09C226.042 112.144 226.681 113.487 226.681 113.487L226.42 114.106C226.42 114.106 225.001 114.653 225.001 114.726V115.838C225.001 115.915 226.423 116.422 226.423 116.422L226.684 117.041C226.684 117.041 226.077 118.41 226.13 118.463L226.934 119.25C226.988 119.303 228.36 118.678 228.36 118.678L228.993 118.934C228.993 118.934 229.552 120.322 229.629 120.322H230.764C230.842 120.322 231.36 118.93 231.36 118.93L231.993 118.674C231.993 118.674 233.39 119.269 233.444 119.217L234.248 118.431C234.304 118.376 233.663 117.034 233.663 117.034L233.923 116.415C233.923 116.415 235.342 115.867 235.342 115.793V114.681C235.345 114.605 233.923 114.099 233.923 114.099ZM231.831 115.26C231.831 116.155 231.087 116.883 230.173 116.883C229.26 116.883 228.515 116.154 228.515 115.26C228.515 114.366 229.26 113.638 230.173 113.638C231.088 113.639 231.831 114.366 231.831 115.26Z" fill="white"/>
<path fill-rule="evenodd" clip-rule="evenodd" d="M43.1991 369.267L132.281 388.72L120.44 442.938H27.1121L43.1991 369.267Z" fill="white"/>
<path fill-rule="evenodd" clip-rule="evenodd" d="M58.298 353.036L69.57 359.381L72.327 341.983L91.088 253.596C94.991 235.213 83.547 229.054 72.216 225.595L52.256 319.632C50.396 328.392 50.957 348.905 58.298 353.036Z" fill="#F3D5B6"/>
<path fill-rule="evenodd" clip-rule="evenodd" d="M239.956 368.694L271.12 442.938H337.108C340.019 440.347 342.869 437.69 345.651 434.968L313.49 354.712L239.956 368.694Z" fill="#F3D5B6"/>
<path fill-rule="evenodd" clip-rule="evenodd" d="M336.673 385.988L358.888 442.938H264.134L254.488 418.72L336.673 385.988Z" fill="white"/>
<path fill-rule="evenodd" clip-rule="evenodd" d="M175.055 310.533L210.97 361.524C215.592 368.087 239.642 388.392 246.556 384.312C253.465 380.235 243.712 357.781 238.919 351.33L211.39 316.812C195.607 297.022 182.03 305.298 175.055 310.533Z" fill="#F3D5B6"/>
<path fill-rule="evenodd" clip-rule="evenodd" d="M186.156 209.212L215.106 275.319C217.417 263.347 235.668 261.515 242.272 272.809C242.955 260.215 259.989 257.077 267.973 266.15C270.513 254.646 288.824 253.534 294.235 265.77L319.013 321.806C325.969 337.539 326.406 361.544 323.244 372.539C313.869 405.131 270.789 406.164 255.623 396.148C243.799 388.339 234.499 384.082 230.658 375.711L159.661 220.511C150.664 200.9 179.197 192.894 186.156 209.212Z" fill="#F3D5B6"/>
<path fill-rule="evenodd" clip-rule="evenodd" d="M277.48 285.404C277.48 285.404 272.786 274.194 268.572 264.256C268.324 264.852 268.12 265.483 267.972 266.151C267.27 265.355 266.499 264.653 265.676 264.044C270.933 273.725 277.48 285.404 277.48 285.404ZM215.18 274.979C215.417 273.922 215.776 272.944 216.245 272.053C220.93 283.208 228.504 302.455 228.504 302.455C228.504 302.455 218.842 283.51 215.106 275.319C215.165 275.446 215.184 275.301 215.18 274.979ZM238.758 268.727C240.116 269.82 241.317 271.178 242.272 272.81C242.316 271.972 242.437 271.178 242.62 270.425C247.378 281.383 253.219 294.983 253.219 294.983C253.219 294.983 244.132 278.873 238.758 268.727Z" fill="#D2B79A"/>
<path fill-rule="evenodd" clip-rule="evenodd" d="M76.1831 226.941C74.8741 226.444 73.5451 226.001 72.2161 225.595L67.7551 246.609C75.2941 246.476 75.9271 234.654 76.1831 226.941Z" fill="#FAF1E7"/>
<path fill-rule="evenodd" clip-rule="evenodd" d="M182.55 209.892L185.018 215.569C180.526 223.626 173.665 226.295 164.824 224.465L162.363 219.084C155.699 204.426 177.43 197.686 182.55 209.892Z" fill="#FAF1E7"/>
<path fill-rule="evenodd" clip-rule="evenodd" d="M81.708 297.79C88.796 310.27 98.866 333.06 92.506 353.2C86.147 373.341 68.127 328.29 81.708 297.79Z" fill="#F3D5B6"/>
<path fill-rule="evenodd" clip-rule="evenodd" d="M178.739 308.54C177.487 309.161 176.256 309.836 175.055 310.533L187.426 328.096C192.454 322.479 184.22 313.974 178.739 308.54Z" fill="#FAF1E7"/>
<path fill-rule="evenodd" clip-rule="evenodd" d="M198.837 306.147L216.362 344.457L193.859 305.338L198.837 306.147Z" fill="#D2B79A"/>
<path d="M206.12 133.292C206.12 136.148 203.805 138.463 200.948 138.463H134.943C132.087 138.463 129.772 136.147 129.772 133.292C129.772 130.436 132.087 128.12 134.943 128.12H200.948C203.805 128.121 206.12 130.436 206.12 133.292Z" fill="white"/>
<path d="M199.431 130.922C198.54 130.03 197.089 130.03 196.197 130.922C195.305 131.814 195.305 133.265 196.197 134.156C196.914 134.873 197.991 135.012 198.849 134.577L200.602 136.331L201.606 135.328L199.853 133.574C200.287 132.716 200.147 131.639 199.431 130.922ZM198.762 133.487C198.239 134.01 197.388 134.01 196.866 133.487C196.343 132.965 196.343 132.114 196.866 131.591C197.388 131.069 198.239 131.069 198.762 131.591C199.284 132.114 199.284 132.965 198.762 133.487Z" fill="#DBE2E8"/>
<path d="M337.402 172.822H247.707V242.009H337.402V172.822Z" fill="white"/>
<path d="M325.651 180.211H259.457V234.621H325.651V180.211Z" fill="#2D4F76"/>
<path d="M287.138 199.304L301.189 207.416L287.138 215.528V199.304Z" fill="white"/>
<path d="M292.554 221.215C284.946 221.215 278.755 215.024 278.755 207.416C278.755 199.807 284.946 193.617 292.554 193.617C300.163 193.617 306.353 199.808 306.353 207.416C306.353 215.025 300.163 221.215 292.554 221.215ZM292.554 195.549C286.01 195.549 280.687 200.872 280.687 207.416C280.687 213.96 286.011 219.283 292.554 219.283C299.098 219.283 304.421 213.959 304.421 207.416C304.421 200.872 299.097 195.549 292.554 195.549Z" fill="white"/>
<path d="M320.19 230.916C320.19 231.332 319.853 231.668 319.438 231.668H265.67C265.255 231.668 264.918 231.331 264.918 230.916C264.918 230.5 265.255 230.164 265.67 230.164H319.438C319.853 230.164 320.19 230.5 320.19 230.916Z" fill="#F5F5F5"/>
<path d="M293.19 230.916C293.19 231.332 292.853 231.668 292.438 231.668H265.67C265.255 231.668 264.918 231.331 264.918 230.916C264.918 230.5 265.255 230.164 265.67 230.164H292.438C292.853 230.164 293.19 230.5 293.19 230.916Z" fill="#FF4D43"/>
<path d="M292.554 232.733C293.558 232.733 294.371 231.92 294.371 230.916C294.371 229.913 293.558 229.099 292.554 229.099C291.551 229.099 290.737 229.913 290.737 230.916C290.737 231.92 291.551 232.733 292.554 232.733Z" fill="#FF4D43"/>
<path d="M337.402 182.984C331.944 182.984 327.519 178.559 327.519 173.101V172.543C327.519 167.085 331.944 162.66 337.402 162.66C342.86 162.66 347.284 167.085 347.284 172.543V173.101C347.284 178.559 342.86 182.984 337.402 182.984Z" fill="#2D4F76"/>
<path d="M338.268 172.822L342.17 168.92C342.409 168.681 342.409 168.293 342.17 168.054C341.93 167.815 341.543 167.815 341.304 168.054L337.402 171.956L333.5 168.054C333.261 167.815 332.874 167.815 332.634 168.054C332.395 168.293 332.395 168.681 332.634 168.92L336.536 172.822L332.634 176.724C332.395 176.963 332.395 177.351 332.634 177.59C332.754 177.71 332.911 177.77 333.067 177.77C333.224 177.77 333.38 177.71 333.5 177.59L337.402 173.689L341.304 177.59C341.423 177.71 341.58 177.77 341.737 177.77C341.893 177.77 342.05 177.71 342.17 177.59C342.409 177.351 342.409 176.963 342.17 176.724L338.268 172.822Z" fill="white"/>
</svg>
