<svg width="1123" height="923" viewBox="0 0 1123 923" fill="none" xmlns="http://www.w3.org/2000/svg">
<path d="M664.072 350.522L937.76 177.444L820.461 318.722L820.425 318.766L820.392 318.811L759.392 401.311L757.534 403.823L760.594 404.458L1110.4 477.042L724.137 522.514L720.887 522.896L722.709 525.614L855.881 724.211L628.836 619.683L626.531 618.622L626.038 621.112L568.159 913.76L489.942 595.523L489.469 593.596L487.538 594.054L88.8969 688.597L392.136 479.233L395.448 476.946L391.626 475.688L14.8025 351.6L408.897 371.997L412.217 372.169L410.813 369.155L265.112 56.4552L529.584 321.413L532.327 324.16L532.972 320.333L585.149 10.8788L661.051 349.269L661.673 352.039L664.072 350.522Z" stroke="black" stroke-width="4"/>
</svg>
