<svg width="1123" height="923" viewBox="0 0 1123 923" fill="none" xmlns="http://www.w3.org/2000/svg">
<path d="M664.339 350.444L935.358 179.054L820.077 317.903L820.032 317.957L819.99 318.014L758.99 400.514L756.668 403.654L760.492 404.448L1107.28 476.405L724.078 521.517L720.016 521.995L722.294 525.392L854.476 722.514L629.045 618.729L626.163 617.402L625.547 620.515L568.106 910.951L490.428 594.903L489.836 592.495L487.423 593.068L91.371 686.997L392.42 479.145L396.56 476.286L391.782 474.713L18.5031 351.792L408.871 371.997L413.021 372.211L411.266 368.444L266.765 58.319L529.231 321.266L532.658 324.7L533.465 319.916L585.218 12.9734L660.564 348.879L661.34 352.341L664.339 350.444Z" stroke="#D9D9D9" stroke-width="5"/>
</svg>
